<?xml version="1.0" standalone="no"?>
<!DOCTYPE svg PUBLIC "-//W3C//DTD SVG 20010904//EN"
 "http://www.w3.org/TR/2001/REC-SVG-20010904/DTD/svg10.dtd">
<svg version="1.0" xmlns="http://www.w3.org/2000/svg"
 width="800.000000pt" height="800.000000pt" viewBox="0 0 800.000000 800.000000"
 preserveAspectRatio="xMidYMid meet">
<metadata>
Created by potrace 1.14, written by Peter Selinger 2001-2017
</metadata>
<g transform="translate(0.000000,800.000000) scale(0.100000,-0.100000)"
fill="#000000" stroke="none">
<path d="M0 4557 l0 -3283 1276 1 c702 0 1279 -2 1283 -5 5 -3 8 -108 7 -235
l-1 -230 -232 0 c-201 0 -233 -2 -234 -15 -3 -65 0 -441 4 -447 6 -10 3782
-11 3792 -1 5 5 9 349 6 448 -1 13 -32 15 -223 14 -123 0 -228 1 -234 3 -16 6
-16 463 0 464 6 1 583 2 1281 3 l1270 1 3 3283 2 3282 -4000 0 -4000 0 0
-3283z m7527 2810 c3 -3 6 -3557 3 -4169 l0 -48 -3530 0 c-2817 0 -3530 3
-3530 13 -1 16 -1 4134 0 4174 l0 32 133 3 c212 5 6919 -1 6924 -5z m-1 -4690
c7 -7 7 -915 0 -925 -3 -6 -1502 -9 -3531 -9 l-3525 0 0 161 c-1 88 -1 298 -1
466 l0 305 63 5 c79 6 6988 3 6994 -3z m-2576 -1406 c13 -1 15 -32 14 -224 -1
-122 -2 -227 -3 -232 -1 -12 -1905 -14 -1918 -2 -14 14 -10 451 4 457 10 4
1846 5 1903 1z"/>
<path d="M4036 6639 c-8 -49 -6 -41 -18 -91 -5 -24 -12 -54 -14 -68 -3 -14
-23 -115 -45 -225 -22 -110 -42 -211 -44 -225 -2 -14 -6 -36 -9 -50 -3 -14
-13 -59 -21 -100 -8 -41 -18 -86 -20 -100 -14 -68 -38 -187 -41 -205 -1 -11
-8 -42 -13 -70 -6 -27 -14 -61 -16 -75 -12 -56 -16 -76 -20 -100 -10 -51 -14
-72 -19 -88 -3 -9 -8 -33 -10 -52 -3 -19 -10 -57 -16 -85 -6 -27 -13 -59 -15
-70 -14 -81 -30 -162 -40 -205 -3 -14 -7 -36 -10 -50 -2 -14 -9 -47 -15 -75
-6 -27 -13 -63 -16 -80 -9 -51 -43 -222 -58 -295 -10 -47 -26 -125 -30 -153
-3 -15 -7 -35 -10 -45 -3 -9 -7 -34 -10 -54 -3 -21 -11 -59 -16 -84 -6 -26 -7
-50 -3 -54 4 -3 60 -16 123 -29 63 -12 126 -24 140 -27 14 -3 58 -11 98 -19
41 -8 78 -18 83 -21 5 -3 9 3 10 13 0 10 2 25 4 33 2 8 5 27 8 43 3 15 8 35
11 45 3 9 7 35 11 57 3 22 10 56 15 75 5 19 11 48 14 64 3 16 10 52 15 80 6
28 13 63 15 79 3 15 7 35 10 45 3 9 7 34 10 54 3 21 10 57 15 80 10 43 17 75
26 126 3 15 17 85 32 157 14 71 27 136 28 145 2 8 4 15 5 15 1 0 3 12 5 27 3
23 19 107 40 208 3 14 7 36 10 50 2 14 8 46 14 73 6 26 14 64 17 85 3 20 9 53
14 72 5 19 12 49 14 65 3 17 24 120 46 230 22 110 42 211 45 225 2 14 9 50 15
80 13 59 16 75 25 130 4 19 13 67 22 105 8 39 17 84 20 100 2 17 11 61 19 99
8 38 11 73 7 77 -5 4 -25 10 -45 13 -21 3 -59 11 -85 17 -27 6 -59 12 -73 14
-14 2 -38 7 -55 11 -16 4 -40 8 -52 8 -13 1 -23 5 -23 9 0 5 -4 6 -8 3 -5 -3
-31 1 -59 8 l-51 14 -6 -39z"/>
<path d="M4982 6277 c-89 -89 -162 -165 -162 -169 0 -4 189 -196 420 -427
l420 -421 -420 -420 c-231 -231 -420 -423 -420 -427 0 -11 314 -323 325 -323
5 0 273 264 595 585 l584 585 -589 590 -590 590 -163 -163z"/>
<path d="M2260 5845 l-584 -585 584 -585 c322 -321 589 -585 594 -585 11 0
326 311 326 322 0 5 -189 197 -420 428 l-421 421 421 420 c231 231 420 423
420 427 0 11 -314 322 -325 322 -6 0 -273 -263 -595 -585z"/>
</g>
</svg>
