<svg width="18" height="14" viewBox="0 0 18 14" fill="none" xmlns="http://www.w3.org/2000/svg">
<g clip-path="url(#clip0_998_4821)">
<path d="M0 0H18V14H0V0Z" fill="#012169"/>
<path d="M18 0V1.75L11.3203 7L18 12.1133V14H15.6445L8.92969 8.85938L2.39062 14H0V12.1406L6.53906 7.02734L0 2.02344V0H2.17969L8.92969 5.14062L15.4688 0H18Z" fill="white"/>
<path d="M6.46875 8.85938L6.85547 9.78906L1.47656 14H0V13.918L6.46875 8.85938ZM10.8281 8.53125L12.7266 8.75L18 12.7695V14L10.8281 8.53125ZM18 0L11.25 5.35938L11.1094 4.15625L16.3828 0H18ZM0 0.0273438L6.78516 5.19531L4.71094 4.97656L0 1.33984V0.0273438Z" fill="#C8102E"/>
<path d="M6.1875 0V14H11.8125V0H6.1875ZM0 4.8125V9.1875H18V4.8125H0Z" fill="white"/>
<path d="M0 5.6875V8.3125H18V5.6875H0ZM7.3125 0V14H10.6875V0H7.3125Z" fill="#C8102E"/>
</g>
<defs>
<clipPath id="clip0_998_4821">
<rect width="18" height="14" rx="2" fill="white"/>
</clipPath>
</defs>
</svg>
