<svg width="17" height="16" viewBox="0 0 17 16" fill="none" xmlns="http://www.w3.org/2000/svg">
<g clip-path="url(#clip0_10:42)">
<path d="M15.9984 4.70404C15.9609 3.8539 15.8234 3.26944 15.6265 2.76299C15.4233 2.22541 15.1107 1.74412 14.7012 1.34401C14.3011 0.937683 13.8167 0.621948 13.2853 0.421957C12.7759 0.22502 12.1945 0.0875415 11.3444 0.0500586C10.4879 0.00940124 10.216 0 8.04367 0C5.87138 0 5.59947 0.00940124 4.74616 0.0468842C3.89602 0.0843671 3.31155 0.221967 2.80523 0.418783C2.26752 0.621948 1.78623 0.934509 1.38613 1.34401C0.979797 1.74412 0.664184 2.22858 0.464072 2.75994C0.267134 3.26944 0.129656 3.85073 0.0921728 4.70087C0.0515155 5.55736 0.0421143 5.82926 0.0421143 8.00156C0.0421143 10.1739 0.0515155 10.4458 0.0889984 11.2991C0.126481 12.1492 0.264081 12.7337 0.461019 13.2401C0.664184 13.7777 0.979797 14.259 1.38613 14.6591C1.78623 15.0654 2.2707 15.3812 2.80205 15.5812C3.31155 15.7781 3.89284 15.9156 4.7431 15.9531C5.5963 15.9907 5.86832 16 8.04062 16C10.2129 16 10.4848 15.9907 11.3381 15.9531C12.1883 15.9156 12.7727 15.7781 13.2791 15.5812C14.3544 15.1654 15.2045 14.3153 15.6202 13.2401C15.817 12.7306 15.9546 12.1492 15.9921 11.2991C16.0296 10.4458 16.039 10.1739 16.039 8.00156C16.039 5.82926 16.0358 5.55736 15.9984 4.70404ZM14.5575 11.2366C14.5231 12.018 14.3918 12.4399 14.2824 12.7212C14.0136 13.4183 13.4604 13.9715 12.7633 14.2403C12.482 14.3497 12.057 14.481 11.2787 14.5153C10.4348 14.5529 10.1817 14.5622 8.04685 14.5622C5.91203 14.5622 5.65576 14.5529 4.8149 14.5153C4.03349 14.481 3.61154 14.3497 3.33023 14.2403C2.98336 14.1121 2.66763 13.909 2.41135 13.6433C2.14567 13.3838 1.94251 13.0713 1.81431 12.7244C1.70491 12.4431 1.57366 12.018 1.53935 11.2397C1.50175 10.3958 1.49247 10.1426 1.49247 8.00779C1.49247 5.87297 1.50175 5.6167 1.53935 4.77596C1.57366 3.99455 1.70491 3.5726 1.81431 3.29129C1.94251 2.9443 2.14567 2.62869 2.41453 2.37229C2.67385 2.10661 2.98641 1.90345 3.33341 1.77537C3.61471 1.66597 4.03984 1.53472 4.81807 1.50029C5.66198 1.46281 5.91521 1.45341 8.0499 1.45341C10.1879 1.45341 10.441 1.46281 11.2819 1.50029C12.0633 1.53472 12.4852 1.66597 12.7665 1.77537C13.1134 1.90345 13.4291 2.10661 13.6854 2.37229C13.9511 2.63174 14.1542 2.9443 14.2824 3.29129C14.3918 3.5726 14.5231 3.99761 14.5575 4.77596C14.595 5.61987 14.6044 5.87297 14.6044 8.00779C14.6044 10.1426 14.595 10.3927 14.5575 11.2366Z" fill="white"/>
<path d="M8.04368 3.8916C5.77456 3.8916 3.9335 5.73254 3.9335 8.00178C3.9335 10.271 5.77456 12.112 8.04368 12.112C10.3129 12.112 12.1539 10.271 12.1539 8.00178C12.1539 5.73254 10.3129 3.8916 8.04368 3.8916ZM8.04368 10.6679C6.57159 10.6679 5.37751 9.47399 5.37751 8.00178C5.37751 6.52957 6.57159 5.33561 8.04368 5.33561C9.51589 5.33561 10.7098 6.52957 10.7098 8.00178C10.7098 9.47399 9.51589 10.6679 8.04368 10.6679Z" fill="white"/>
<path d="M13.276 3.72858C13.276 4.25847 12.8464 4.68812 12.3164 4.68812C11.7865 4.68812 11.3568 4.25847 11.3568 3.72858C11.3568 3.19857 11.7865 2.76904 12.3164 2.76904C12.8464 2.76904 13.276 3.19857 13.276 3.72858Z" fill="white"/>
</g>
<defs>
<clipPath id="clip0_10:42">
<rect width="16" height="16" fill="white" transform="translate(0.0140076)"/>
</clipPath>
</defs>
</svg>
