<svg width="15" height="14" viewBox="0 0 15 14" fill="none" xmlns="http://www.w3.org/2000/svg">
<g clip-path="url(#clip0_10:23)">
<path d="M12.614 0H1.41402C0.644015 0 0.0140152 0.63 0.0140152 1.4V12.6C0.0140152 13.37 0.644015 14 1.41402 14H12.614C13.384 14 14.014 13.37 14.014 12.6V1.4C14.014 0.63 13.384 0 12.614 0ZM4.21402 11.9H2.11402V5.6H4.21402V11.9ZM3.16402 4.41C2.46402 4.41 1.90402 3.85 1.90402 3.15C1.90402 2.45 2.46402 1.89 3.16402 1.89C3.86402 1.89 4.42402 2.45 4.42402 3.15C4.42402 3.85 3.86402 4.41 3.16402 4.41ZM11.914 11.9H9.81402V8.19C9.81402 7.63003 9.32402 7.14 8.76402 7.14C8.20402 7.14 7.71402 7.63003 7.71402 8.19V11.9H5.61402V5.6H7.71402V6.44C8.06402 5.88 8.83401 5.46 9.46402 5.46C10.794 5.46 11.914 6.58 11.914 7.91V11.9Z" fill="white"/>
</g>
<defs>
<clipPath id="clip0_10:23">
<rect width="14" height="14" fill="white" transform="translate(0.0140152)"/>
</clipPath>
</defs>
</svg>
