<svg width="21" height="20" viewBox="0 0 21 20" fill="none" xmlns="http://www.w3.org/2000/svg">
<g clip-path="url(#clip0_10:4)">
<path d="M20.014 3.79875C19.2703 4.125 18.4778 4.34125 17.6515 4.44625C18.5015 3.93875 19.1503 3.14125 19.4553 2.18C18.6628 2.6525 17.7878 2.98625 16.8553 3.1725C16.1028 2.37125 15.0303 1.875 13.8603 1.875C11.5903 1.875 9.76276 3.7175 9.76276 5.97625C9.76276 6.30125 9.79027 6.61375 9.85777 6.91125C6.44902 6.745 3.43277 5.11125 1.40652 2.6225C1.05277 3.23625 0.845265 3.93875 0.845265 4.695C0.845265 6.115 1.57652 7.37375 2.66652 8.1025C2.00777 8.09 1.36152 7.89875 0.814015 7.5975C0.814015 7.61 0.814015 7.62625 0.814015 7.6425C0.814015 9.635 2.23527 11.29 4.09902 11.6712C3.76526 11.7625 3.40152 11.8062 3.02402 11.8062C2.76152 11.8062 2.49652 11.7913 2.24777 11.7362C2.77902 13.36 4.28652 14.5538 6.07902 14.5925C4.68402 15.6838 2.91277 16.3412 0.995265 16.3412C0.659015 16.3412 0.336515 16.3263 0.0140152 16.285C1.83027 17.4563 3.98277 18.125 6.30402 18.125C13.849 18.125 17.974 11.875 17.974 6.4575C17.974 6.27625 17.9678 6.10125 17.959 5.9275C18.7728 5.35 19.4565 4.62875 20.014 3.79875Z" fill="white"/>
</g>
<defs>
<clipPath id="clip0_10:4">
<rect width="20" height="20" fill="white" transform="translate(0.0140152)"/>
</clipPath>
</defs>
</svg>
